# xmcd CD database file
#
# Track frame offsets:
#	150
#	19573
#	39135
#	57719
#	75131
#	103214
#	118845
#	139141
#	158754
#	182298
#	199114
#	221834
#
# Disc length: 3224 seconds
#
# Revision: 0
# Processed by: cddbd v1.5PL3 Copyright (c) Steve Scherf et al.
# Submitted via: CDex 1.51
#
DISCID=9b0c960c
DTITLE=Chris Mayther Band - Big Blue Eyed Soul
DYEAR=1900
DGENRE=Blues
TTITLE0=I Prefer You
TTITLE1=Natural Man
TTITLE2=Nice and Strong
TTITLE3=Drownin' in a Sea of Love
TTITLE4=Bring It On Home
TTITLE5=Try A Little Tenderness
TTITLE6=Kissin' My Love
TTITLE7=Rainy Night in Georgia
TTITLE8=Born Again
TTITLE9=Hard to Handle
TTITLE10=Me and Mrs. Jones
TTITLE11=Real Mutha for Ya
EXTD=
EXTT0=
EXTT1=
EXTT2=
EXTT3=
EXTT4=
EXTT5=
EXTT6=
EXTT7=
EXTT8=
EXTT9=
EXTT10=
EXTT11=
PLAYORDER=
